<?xml version="1.0" encoding="UTF-8"?>
<svg version="1.1" xmlns="http://www.w3.org/2000/svg" width="168" height="70">
    <path
        d="M0 0 C55.44 0 110.88 0 168 0 C168 23.1 168 46.2 168 70 C112.56 70 57.12 70 0 70 C0 46.9 0 23.8 0 0 Z "
        fill="#FBFCFC" transform="translate(0,0)" />
    <path
        d="M0 0 C1.65 0 3.3 0 5 0 C7.97 6.27 10.94 12.54 14 19 C14.33 12.73 14.66 6.46 15 0 C16.32 0 17.64 0 19 0 C19 9.9 19 19.8 19 30 C17.35 30 15.7 30 14 30 C11.03 23.73 8.06 17.46 5 11 C4.67 17.27 4.34 23.54 4 30 C2.68 30 1.36 30 0 30 C0 20.1 0 10.2 0 0 Z "
        fill="#1D3854" transform="translate(93,21)" />
    <path
        d="M0 0 C1.32 0 2.64 0 4 0 C4.01981934 0.71655762 4.03963867 1.43311523 4.06005859 2.17138672 C4.15509519 5.4063063 4.26486019 8.64056094 4.375 11.875 C4.4059375 13.00292969 4.436875 14.13085938 4.46875 15.29296875 C4.50742188 16.36933594 4.54609375 17.44570313 4.5859375 18.5546875 C4.6173584 19.54968262 4.6487793 20.54467773 4.68115234 21.56982422 C4.77247083 24.17854517 4.77247083 24.17854517 7 26 C9.5 26.33333333 9.5 26.33333333 12 26 C14.60088622 23.39911378 14.29962225 22.17862887 14.4140625 18.5546875 C14.45273438 17.47832031 14.49140625 16.40195312 14.53125 15.29296875 C14.57765625 13.60107422 14.57765625 13.60107422 14.625 11.875 C14.68300781 10.17150391 14.68300781 10.17150391 14.7421875 8.43359375 C14.83667601 5.62256044 14.92223541 2.81153767 15 0 C16.32 0 17.64 0 19 0 C19.08732726 3.89569135 19.14050185 7.79112982 19.1875 11.6875 C19.21263672 12.79029297 19.23777344 13.89308594 19.26367188 15.02929688 C19.27333984 16.09599609 19.28300781 17.16269531 19.29296875 18.26171875 C19.3086792 19.24100342 19.32438965 20.22028809 19.34057617 21.22924805 C18.93608008 24.52001945 17.99368389 26.36770741 16 29 C12.29839178 30.23386941 8.85206234 30.44267652 5 30 C1.76386646 28.25746655 1.17604685 27.52814056 0 24 C-0.08239169 22.15389468 -0.10743359 20.30494836 -0.09765625 18.45703125 C-0.09443359 17.38388672 -0.09121094 16.31074219 -0.08789062 15.20507812 C-0.07951172 14.08552734 -0.07113281 12.96597656 -0.0625 11.8125 C-0.05798828 10.68134766 -0.05347656 9.55019531 -0.04882812 8.38476562 C-0.03703498 5.58979073 -0.0205765 2.7949218 0 0 Z "
        fill="#122E4C" transform="translate(124,21)" />
    <path
        d="M0 0 C1.22589844 0.01353516 1.22589844 0.01353516 2.4765625 0.02734375 C3.41628906 0.04474609 3.41628906 0.04474609 4.375 0.0625 C4.705 1.0525 5.035 2.0425 5.375 3.0625 C4.45267578 3.10117187 4.45267578 3.10117187 3.51171875 3.140625 C2.70347656 3.19734375 1.89523438 3.2540625 1.0625 3.3125 C0.26199219 3.35890625 -0.53851563 3.4053125 -1.36328125 3.453125 C-3.72111675 3.90353939 -3.72111675 3.90353939 -5.39453125 5.671875 C-7.05966124 8.9069847 -7.02303802 11.43785206 -7 15.0625 C-7.00773437 16.279375 -7.01546875 17.49625 -7.0234375 18.75 C-6.60553096 22.22436024 -6.15375263 23.68111058 -3.625 26.0625 C-0.49913125 26.39647787 -0.49913125 26.39647787 2.375 26.0625 C2.87 21.6075 2.87 21.6075 3.375 17.0625 C1.725 17.0625 0.075 17.0625 -1.625 17.0625 C-1.625 16.0725 -1.625 15.0825 -1.625 14.0625 C1.015 14.0625 3.655 14.0625 6.375 14.0625 C6.375 18.6825 6.375 23.3025 6.375 28.0625 C2.06921007 30.21539496 0.09447318 30.55928665 -4.625 30.0625 C-8.14810811 27.87034384 -10.14661261 25.91408819 -11.625 22.0625 C-12.92965192 9.89490417 -12.92965192 9.89490417 -10.57421875 4.78125 C-7.34068535 0.88956378 -4.85765912 -0.06939513 0 0 Z "
        fill="#14304E" transform="translate(62.625,20.9375)" />
    <path
        d="M0 0 C4.62 0 9.24 0 14 0 C14 0.99 14 1.98 14 3 C10.7 3 7.4 3 4 3 C4 6.3 4 9.6 4 13 C6.97 13 9.94 13 13 13 C13 13.99 13 14.98 13 16 C10.03 16 7.06 16 4 16 C4 19.63 4 23.26 4 27 C7.3 27 10.6 27 14 27 C14 27.99 14 28.98 14 30 C11.85423363 30.02685938 9.70837355 30.04633088 7.5625 30.0625 C6.36753906 30.07410156 5.17257813 30.08570312 3.94140625 30.09765625 C1 30 1 30 0 29 C-0.08775605 26.85441173 -0.10695219 24.70595579 -0.09765625 22.55859375 C-0.09443359 21.25341797 -0.09121094 19.94824219 -0.08789062 18.60351562 C-0.07953401 17.2148431 -0.07106905 15.82617123 -0.0625 14.4375 C-0.05748666 13.04492344 -0.05292347 11.65234519 -0.04882812 10.25976562 C-0.03699442 6.83982549 -0.01905831 3.4199075 0 0 Z "
        fill="#122F4C" transform="translate(75,21)" />
    <path
        d="M0 0 C1.32 0 2.64 0 4 0 C4.08636719 0.64066406 4.17273438 1.28132813 4.26171875 1.94140625 C5.46285045 9.33552892 7.41462682 14.37655621 13.5625 18.875 C18.62605362 20.532163 23.70084512 20.75133416 29 21 C29 22.65 29 24.3 29 26 C20.64369892 26.46233633 14.86311573 25.49966312 7.8125 20.9375 C3.50315058 17.017763 0.42674093 11.3545078 -0.30859375 5.57421875 C-0.3125 3.375 -0.3125 3.375 0 0 Z "
        fill="#51C0F3" transform="translate(9,31)" />
    <path
        d="M0 0 C8.17568484 -0.69944072 14.19241978 0.24303939 21 5 C25.23695845 8.85098294 28.79943698 13.17497661 29.109375 19.0859375 C29.12321109 21.05758022 29.06679862 23.02944059 29 25 C27.68 25 26.36 25 25 25 C24.91363281 24.34773438 24.82726562 23.69546875 24.73828125 23.0234375 C23.4610737 15.07897219 21.44348974 11.54818241 14.875 6.6875 C10.25072496 4.21643507 5.14536464 4.18608914 0 4 C0 2.68 0 1.36 0 0 Z "
        fill="#122E4C" transform="translate(9,15)" />
    <path
        d="M0 0 C1.32 0 2.64 0 4 0 C4.08732726 3.89569135 4.14050185 7.79112982 4.1875 11.6875 C4.22520508 13.34168945 4.22520508 13.34168945 4.26367188 15.02929688 C4.27817383 16.6293457 4.27817383 16.6293457 4.29296875 18.26171875 C4.31653442 19.73064575 4.31653442 19.73064575 4.34057617 21.22924805 C3.93893823 24.49676706 2.94129441 26.36370335 1 29 C-1.72278735 29.94230308 -4.08239887 29.85651142 -7 30 C-7 29.34 -7 28.68 -7 28 C-5.68 28 -4.36 28 -3 28 C-1.06102788 24.72075593 -0.70674472 22.14466781 -0.5859375 18.359375 C-0.54726562 17.28945313 -0.50859375 16.21953125 -0.46875 15.1171875 C-0.42234375 13.45042969 -0.42234375 13.45042969 -0.375 11.75 C-0.33632812 10.62335937 -0.29765625 9.49671875 -0.2578125 8.3359375 C-0.16362664 5.55745452 -0.07800414 2.77897666 0 0 Z "
        fill="#183451" transform="translate(139,21)" />
    <path
        d="M0 0 C1.90625 0.25390625 1.90625 0.25390625 4 1 C4.90625 2.77734375 4.90625 2.77734375 5.5 4.9375 C6.36810164 8.10141598 6.36810164 8.10141598 8.765625 10.21484375 C11.30194526 11.10610314 13.57192902 11.41357334 16.25 11.625 C17.14203125 11.69976562 18.0340625 11.77453125 18.953125 11.8515625 C19.96632813 11.92503906 19.96632813 11.92503906 21 12 C21 13.65 21 15.3 21 17 C16.07017894 17.35073826 12.19484365 17.58614972 7.6875 15.375 C0.13731826 8.70274637 0.13731826 8.70274637 -0.3125 3.125 C-0.209375 2.09375 -0.10625 1.0625 0 0 Z "
        fill="#1B83DD" transform="translate(17,32)" />
    <path
        d="M0 0 C7.09197626 -0.79951298 11.35119611 0.16977439 17.1875 4.296875 C20.38712668 7.30342076 20.97874163 9.36224897 21.125 13.75 C21.08375 14.8225 21.0425 15.895 21 17 C19.1015625 16.74609375 19.1015625 16.74609375 17 16 C16.0234375 14.22265625 16.0234375 14.22265625 15.375 12.0625 C14.50648174 9.24747904 14.13620863 8.13620863 12 6 C9.11282395 5.3162387 9.11282395 5.3162387 5.875 4.875 C4.23144531 4.62363281 4.23144531 4.62363281 2.5546875 4.3671875 C1.71164062 4.24601562 0.86859375 4.12484375 0 4 C0 2.68 0 1.36 0 0 Z "
        fill="#47CFCF" transform="translate(9,23)" />
    <path d="M0 0 C0.99 0 1.98 0 3 0 C3 9.9 3 19.8 3 30 C2.01 30 1.02 30 0 30 C0 20.1 0 10.2 0 0 Z "
        fill="#052342" transform="translate(150,21)" />
    <path
        d="M0 0 C2.64 0 5.28 0 8 0 C8 4.62 8 9.24 8 14 C4.23312136 15.88343932 2.97041037 16.22057835 -1 16 C-1 15.34 -1 14.68 -1 14 C0.65 13.34 2.3 12.68 4 12 C4.33 9.03 4.66 6.06 5 3 C3.35 3 1.7 3 0 3 C0 2.01 0 1.02 0 0 Z "
        fill="#092746" transform="translate(61,35)" />
</svg>